# xmcd
#
# Track frame offsets:
# 150
# 12500
# 22392
# 38525
# 52777
# 67945
# 80399
# 96081
# 111294
# 125358
# 138693
# 148755
# 164138
# 178119
# 191007
# 205939
# 219521
# 233183
# 250260
# 262165
# 277014
# 292009
# 309232
# 323012
#
# Disc length: 4482 seconds
#
#
# Revision: 0
# Processed by: cddbd v1.5.2PL0 Copyright (c) Steve Scherf et al.
# Submitted via: FreeRIP 2.945 
#
DISCID=70118018
DTITLE=Cooper-JF1826 - Last-Mohicans04
DYEAR=1826
DGENRE=Native American
TTITLE0=LM 0401
TTITLE1=LM 0402
TTITLE2=LM 0403
TTITLE3=LM 0404
TTITLE4=LM 0405
TTITLE5=LM 0406
TTITLE6=LM 0407
TTITLE7=LM 0408
TTITLE8=LM 0409
TTITLE9=LM 0410
TTITLE10=LM 0411
TTITLE11=LM 0412
TTITLE12=LM 0413
TTITLE13=LM 0414
TTITLE14=LM 0415
TTITLE15=LM 0416
TTITLE16=LM 0417
TTITLE17=LM 0418
TTITLE18=LM 0419
TTITLE19=LM 0420
TTITLE20=LM 0421
TTITLE21=LM 0422
TTITLE22=LM 0423
TTITLE23=LM 0424
EXTD=The Last of the Mohicans Tantor Media\nby James Finimore Cooper 12 CDs\nread by William Costello native country
EXTT0=
EXTT1=
EXTT2=
EXTT3=
EXTT4=
EXTT5=
EXTT6=
EXTT7=
EXTT8=
EXTT9=
EXTT10=
EXTT11=
EXTT12=
EXTT13=
EXTT14=
EXTT15=
EXTT16=
EXTT17=
EXTT18=
EXTT19=
EXTT20=
EXTT21=
EXTT22=
EXTT23=
PLAYORDER=
